<?xml version="1.0" encoding="utf-8"?><!DOCTYPE svg PUBLIC "-//W3C//DTD SVG 1.1//EN" "http://www.w3.org/Graphics/SVG/1.1/DTD/svg11.dtd"><svg width="60" height="20" viewBox="0 0 60 20" xmlns="http://www.w3.org/2000/svg" xmlns:xlink="http://www.w3.org/1999/xlink"><svg viewBox="0 0 20 20" width="20" height="20" id="dots-a"><path d="M7.8 10a2.2 2.2 0 0 0 4.4 0 2.2 2.2 0 0 0-4.4 0z"/></svg><svg viewBox="0 0 20 20" width="20" height="20" id="dots-b" x="20"><path d="M14.001 7.8a2.2 2.2 0 1 0 0 4.402A2.2 2.2 0 0 0 14 7.8zm-8 0a2.2 2.2 0 1 0 0 4.402A2.2 2.2 0 0 0 6 7.8z"/></svg><svg viewBox="0 0 20 20" width="20" height="20" id="dots-c" x="40"><path d="M10.001 7.8a2.2 2.2 0 1 0 0 4.402A2.2 2.2 0 0 0 10 7.8zm-7 0a2.2 2.2 0 1 0 0 4.402A2.2 2.2 0 0 0 3 7.8zm14 0a2.2 2.2 0 1 0 0 4.402A2.2 2.2 0 0 0 17 7.8z"/></svg></svg>