<svg id="b39b86b2-cbe1-4b07-8887-4d79665eebb5" data-name="Layer 1" xmlns="http://www.w3.org/2000/svg" xmlns:xlink="http://www.w3.org/1999/xlink" viewBox="0 0 119.37 17.15"><defs><clipPath id="fd5440bc-8584-4f8a-937d-2a8242b35392" transform="translate(0 0.22)"><rect x="-5.72" y="-6.44" width="127.56" height="28.35" style="fill:none"/></clipPath></defs><title>logo</title><g style="clip-path:url(#fd5440bc-8584-4f8a-937d-2a8242b35392)"><path d="M36.41.06a2.65,2.65,0,0,1,2.83,2.75A2.26,2.26,0,0,1,38.12,5c.31.49,1,1.7,1.69,2.83.14.24.11.32,0,.32H37.67c-.1,0-.14,0-.25-.24C37,7.18,36.13,5.8,36.13,5.8l-1.38,0V8.09c0,.1,0,.11-.1.11h-2c-.1,0-.1,0-.1-.11V.17c0-.12.06-.11.1-.11ZM36,4.17A1.05,1.05,0,0,0,37,3a1,1,0,0,0-1-1.12H34.75V4.2Z" transform="translate(0 0.22)" style="fill:#fff"/><path d="M41.8,8.06c0,.1,0,.13-.11.13h-.85c-.08,0-.11,0-.11-.12V7.24c0-.11,0-.15.12-.15h.85c.08,0,.1,0,.1.1Z" transform="translate(0 0.22)" style="fill:#fff"/><path d="M45,7c-.14.34-.3.74-.42,1,0,.1-.06.13-.22.13h-2c-.1,0-.11,0-.06-.17,1.25-2.65,3-6.19,4.08-8.23,0,0,.27,0,.29,0C47.86,2,49.49,5.38,50.81,8c.07.15.06.17,0,.17H48.52a.14.14,0,0,1-.14-.1c-.14-.32-.32-.77-.44-1.07ZM47.3,5.47l-.85-1.82-.82,1.82Z" transform="translate(0 0.22)" style="fill:#fff"/><path d="M52.62,8.06c0,.1,0,.13-.11.13h-.85c-.08,0-.11,0-.11-.12V7.24c0-.11,0-.15.12-.15h.85c.08,0,.1,0,.1.1Z" transform="translate(0 0.22)" style="fill:#fff"/><path d="M54.1-.06c0-.13.07-.12.13-.08,1.71,1.22,4.65,3.95,4.65,3.95V.21c0-.13,0-.14.1-.14H60.8c.12,0,.12,0,.12.14,0,2.34,0,5.55,0,8,0,.14,0,.22-.14.12-1.81-1.35-4.64-4-4.64-4V8.09c0,.11,0,.11-.11.11H54.22a.12.12,0,0,1-.12-.12c-.06-3.06,0-5,0-8.13" transform="translate(0 0.22)" style="fill:#fff"/><path d="M63.62,8.06c0,.1,0,.13-.11.13h-.85c-.08,0-.11,0-.11-.12V7.24c0-.11,0-.15.12-.15h.85c.08,0,.1,0,.1.1Z" transform="translate(0 0.22)" style="fill:#fff"/><path d="M65.18,8.2c-.08,0-.1,0-.1-.11V.18c0-.09,0-.12.1-.12h3.33c2.3,0,3.68,1.43,3.68,4.07a3.71,3.71,0,0,1-4,4.07Zm2-1.73h1.1c1.2,0,1.65-1,1.65-2.37s-.59-2.33-1.63-2.33H67.19Z" transform="translate(0 0.22)" style="fill:#fff"/><path d="M74.45,8.06c0,.1,0,.13-.11.13h-.85c-.08,0-.11,0-.11-.12V7.24c0-.11,0-.15.12-.15h.85c.08,0,.1,0,.1.1Z" transform="translate(0 0.22)" style="fill:#fff"/><path d="M86.94,8c0,.1,0,.17-.08.17h-2c-.08,0-.1,0-.1-.1l-.07-3.49s-1.38,1.44-1.82,1.87c-.08.07-.1.08-.18,0L80.87,4.61,80.78,8c0,.16,0,.17-.13.17h-1.8c-.11,0-.11,0-.11-.07,0-2.57.13-5.67.24-8.07,0-.14.1-.16.17-.08,1,1,3.12,3.12,3.66,3.73.5-.6,2.51-2.7,3.63-3.79.06-.06.16-.06.17.06.17,3.13.24,5.18.32,8.07" transform="translate(0 0.22)" style="fill:#fff"/><path d="M88.85.14c0-.07,0-.07.06-.07h2c.08,0,.08,0,.08.1V5.5a1.27,1.27,0,0,0,2.52,0V.15c0-.07,0-.08.07-.08h2c.06,0,.06,0,.06.08v5.1c0,1.93-1,3.15-3.38,3.15s-3.39-1.3-3.39-3.27Z" transform="translate(0 0.22)" style="fill:#fff"/><path d="M100.38,1.86c-.64,0-2.39,0-3,0-.11,0-.11,0-.11-.11V.22c0-.12,0-.16.18-.16h5.73c.06,0,.06.16,0,.22a56.19,56.19,0,0,1-3.3,6.09c.46,0,2.4,0,3.08,0,.1,0,.16,0,.16.13v1.6c0,.11,0,.13-.12.13H97c-.08,0-.08-.16,0-.25,1-2.17,3.47-6.08,3.47-6.08" transform="translate(0 0.22)" style="fill:#fff"/><path d="M106.86,4.14V8.09c0,.1,0,.11-.12.11h-2c-.11,0-.11,0-.11-.11V.17c0-.12,0-.11.11-.11h2c.11,0,.12,0,.12.11Z" transform="translate(0 0.22)" style="fill:#fff"/><path d="M111.18,8.09c0,.1,0,.11-.11.11h-1.94c-.11,0-.11,0-.11-.11V.17c0-.12,0-.11.11-.11h1.94c.1,0,.11,0,.11.11v3.6s1.67-2.54,2.33-3.63a.16.16,0,0,1,.14-.07h2.17c.12,0,.14,0,.07.14-.8,1.09-2.39,3.3-2.39,3.3s1.8,3.2,2.57,4.52c.07.14,0,.17-.08.17h-2.17c-.1,0-.08,0-.16-.14-.37-.72-1.5-2.83-1.5-2.83l-1,1.39Z" transform="translate(0 0.22)" style="fill:#fff"/><path d="M0,0V15.28H28.5V0ZM18.72,13.45a5.77,5.77,0,0,1-4.38-2c.09-.12.15-.26.23-.39s.16-.25.23-.38.18-.39.26-.58.11-.25.16-.38A6.33,6.33,0,0,0,15.37,9c0-.11.06-.22.08-.34a6.44,6.44,0,0,0,0-2.11c0-.11-.05-.22-.08-.34a6.32,6.32,0,0,0-.17-.68c0-.13-.1-.25-.16-.38a6.24,6.24,0,0,0-.26-.58c-.07-.13-.15-.25-.23-.38s-.14-.26-.23-.38a5.8,5.8,0,1,1,4.38,9.6Zm-9.78,0a5.8,5.8,0,1,1,4.38-9.6c-.09.12-.15.26-.23.38s-.16.25-.23.38a6.26,6.26,0,0,0-.26.58c-.05.13-.11.25-.15.38a6.3,6.3,0,0,0-.17.68c0,.11-.06.22-.08.34a6.44,6.44,0,0,0,0,2.11c0,.11.05.22.08.34a6.32,6.32,0,0,0,.17.68c0,.13.1.25.15.38s.16.39.26.58.15.25.23.38.14.26.23.39A5.77,5.77,0,0,1,8.94,13.45Zm4-5.8a5.72,5.72,0,0,1,.91-3.08,5.65,5.65,0,0,1,0,6.17A5.72,5.72,0,0,1,12.91,7.64Z" transform="translate(0 0.22)" style="fill:#fff"/><path d="M7.66,8.67C7.66,9.54,7,10,5.78,10s-1.64-.55-1.7-1.21c0-.08,0-.1.05-.11l.95-.34s.06,0,.06.08a.66.66,0,0,0,.7.71.6.6,0,0,0,.68-.64c0-.48-.41-.72-1-.73,0,0,0-.19,0-.19a.79.79,0,0,0,.79-.72.56.56,0,0,0-.57-.59c-.4,0-.57.27-.66.66C5.09,7,5,7.06,5,7l-.81-.3a.09.09,0,0,1-.05-.11A1.61,1.61,0,0,1,5.88,5.47c.92,0,1.58.42,1.58,1.19a1,1,0,0,1-.61.95,1,1,0,0,1,.81,1.06" transform="translate(0 0.22)" style="fill:#fff"/><path d="M11.46,8.67c0,.87-.66,1.37-1.87,1.37s-1.64-.55-1.7-1.21c0-.08,0-.1.05-.11l.95-.34s.06,0,.06.08a.66.66,0,0,0,.7.71.6.6,0,0,0,.68-.64c0-.48-.41-.72-1-.73,0,0,0-.19,0-.19a.79.79,0,0,0,.79-.72.56.56,0,0,0-.57-.59c-.4,0-.57.27-.66.66,0,.06-.06.09-.1.08L8,6.74A.09.09,0,0,1,8,6.63,1.61,1.61,0,0,1,9.68,5.47c.92,0,1.58.42,1.58,1.19a1,1,0,0,1-.61.95,1,1,0,0,1,.81,1.06" transform="translate(0 0.22)" style="fill:#fff"/><path d="M16.17,9.18a.07.07,0,0,1-.06-.09,4.26,4.26,0,0,0,0-.68.15.15,0,0,1,0-.12c.8-1,1.42-1.72,2.24-2.66,0,0,0-.06.1-.06h.65s0,0,0,.06V8.36h.58s0,0,0,.07v.68c0,.05,0,.06-.06.06H19.2v.63c0,.09,0,.09-.06.09h-1c-.06,0-.06,0-.06-.09V9.18Zm1.93-.82,0-1.32L17.05,8.36Z" transform="translate(0 0.22)" style="fill:#fff"/><path d="M21.6,6.86a1.4,1.4,0,0,1,1.53,1.49A1.58,1.58,0,0,1,21.4,10a1.61,1.61,0,0,1-1.71-1c0-.05,0-.09.06-.13l.78-.39c.08,0,.1,0,.13,0a.79.79,0,0,0,.69.53A.59.59,0,0,0,22,8.36c0-.4-.26-.69-.79-.69A2.63,2.63,0,0,0,20,8.11S19.9,8,19.9,8c0-.56.11-1.39.18-2.32,0-.06,0-.08.08-.08h2.63s.05,0,0,.08c0,.36-.08.62-.1.77a.06.06,0,0,1-.06.06H20.89l-.07.58a1.57,1.57,0,0,1,.77-.22" transform="translate(0 0.22)" style="fill:#fff"/></g><g id="ee969578-e69d-4cfc-94c7-5af39019ef06" data-name="Layer 3"><text transform="translate(32.08 15.33)" style="font-size:7px;fill:#fff;font-family:FuturaPT-Bold, Futura PT;font-weight:700;letter-spacing:0.47802734375em">DISTRIBUTION</text></g></svg>
